<svg t="1692163195923" class="icon" viewBox="0 0 1024 1024" version="1.1" xmlns="http://www.w3.org/2000/svg" p-id="1783" width="200" height="200"><path d="M916.64839111 645.95057778l37.79242667 63.42428444a7.28177778 7.28177778 0 0 1-2.54862223 9.97603556l-453.87320888 270.51804444-453.90961778-270.51804444a7.28177778 7.28177778 0 0 1-2.54862222-9.97603556l37.79242666-63.42428444a7.28177778 7.28177778 0 0 1 10.01244445-2.54862222l408.61696 243.53905778 408.68977777-243.50264889a7.28177778 7.28177778 0 0 1 9.97603556 2.54862222z m0-176.80156444l37.79242667 63.42428444a7.28177778 7.28177778 0 0 1-2.54862223 10.01244444l-453.87320888 270.51804445-453.90961778-270.51804445a7.28177778 7.28177778 0 0 1-2.54862222-10.01244444l37.79242666-63.42428444a7.28177778 7.28177778 0 0 1 10.01244445-2.54862222l408.61696 243.57546666 408.68977777-243.57546666a7.28177778 7.28177778 0 0 1 9.97603556 2.54862222zM471.22204445 28.56504889c25.12213333-14.92764445 56.36096-14.92764445 81.48309333 0l406.68728889 242.37397333a53.04775111 53.04775111 0 0 1 0 91.1314489l-406.68728889 242.33756444c-25.12213333 14.96405333-56.36096 14.96405333-81.48309333 0l-406.6872889-242.33756444a53.04775111 53.04775111 0 0 1 0-91.1314489zM512 107.20824889l-351.16373333 209.27829333L512 525.76483556l351.16373333-209.27829334-351.16373333-209.27829333z" p-id="1784"></path></svg>