<svg t="1689669804901" class="icon" viewBox="0 0 1024 1024" version="1.1" xmlns="http://www.w3.org/2000/svg" p-id="1304" width="200" height="200"><path d="M348.16 519.28177778c-3.64088889-7.28177778-7.28177778-10.92266667-14.56355555-18.20444445-3.64088889-3.64088889-10.92266667-7.28177778-14.56355556-10.92266666 3.64088889-3.64088889 7.28177778-3.64088889 7.28177778-7.28177778 3.64088889-3.64088889 3.64088889-7.28177778 7.28177778-10.92266667 0-3.64088889 3.64088889-7.28177778 3.64088888-14.56355555v-14.56355556c0-10.92266667-3.64088889-21.84533333-7.28177778-32.768-3.64088889-10.92266667-10.92266667-18.20444445-14.56355555-25.48622222-7.28177778-7.28177778-14.56355555-10.92266667-21.84533333-14.56355556-7.28177778-3.64088889-18.20444445-3.64088889-25.48622222-3.64088888H184.32v287.63022222h91.02222222c10.92266667 0 21.84533333-3.64088889 32.768-7.28177778 10.92266667-3.64088889 18.20444445-10.92266667 25.48622223-18.20444444 7.28177778-7.28177778 14.56355555-18.20444445 18.20444444-29.12711112 3.64088889-10.92266667 7.28177778-21.84533333 7.28177778-36.40888888 0-7.28177778 0-18.20444445-3.64088889-25.48622223s-3.64088889-14.56355555-7.28177778-18.20444444z m-109.22666667-101.94488889h18.20444445c7.28177778 0 14.56355555 3.64088889 18.20444444 7.28177778 7.28177778 3.64088889 7.28177778 10.92266667 7.28177778 21.84533333s-3.64088889 18.20444445-7.28177778 21.84533333c-3.64088889 7.28177778-10.92266667 7.28177778-18.20444444 7.28177778h-18.20444445v-58.25422222z m61.89511112 163.84c-3.64088889 3.64088889-3.64088889 7.28177778-7.28177778 10.92266666-3.64088889 3.64088889-7.28177778 3.64088889-10.92266667 7.28177778-3.64088889 0-7.28177778 3.64088889-14.56355555 3.64088889H238.93333333v-72.81777777h29.12711112c10.92266667 0 18.20444445 3.64088889 25.48622222 10.92266666 7.28177778 7.28177778 10.92266667 14.56355555 10.92266666 29.12711111 0 0-3.64088889 7.28177778-3.64088888 10.92266667zM781.42577778 475.59111111v54.61333334c-7.28177778-7.28177778-10.92266667-18.20444445-18.20444445-29.12711112-7.28177778-10.92266667-14.56355555-18.20444445-21.84533333-25.48622222L657.63555555 366.36444445h-47.33155555v287.63022222h58.25422222v-182.04444445l21.84533333 32.768c7.28177778 10.92266667 14.56355555 21.84533333 25.48622223 32.768l94.66311111 123.79022223H839.68v-291.27111112h-58.25422222V475.59111111z" p-id="1305"></path><path d="M948.90666667 184.32H75.09333333c-40.04977778 0-72.81777778 32.768-72.81777778 72.81777778v509.72444444c0 40.04977778 32.768 72.81777778 72.81777778 72.81777778h873.81333334c40.04977778 0 72.81777778-32.768 72.81777778-72.81777778V257.13777778c0-40.04977778-32.768-72.81777778-72.81777778-72.81777778z m0 546.13333333c0 21.84533333-14.56355555 36.40888889-36.40888889 36.40888889H111.50222222c-21.84533333 0-36.40888889-14.56355555-36.40888889-36.40888889V293.54666667c0-21.84533333 14.56355555-36.40888889 36.40888889-36.40888889h800.99555556c21.84533333 0 36.40888889 14.56355555 36.40888889 36.40888889v436.90666666z" p-id="1306"></path><path d="M377.28711111 420.97777778h72.81777778v233.01688889H512V420.97777778h72.81777778v-54.61333333H377.28711111z" p-id="1307"></path></svg>