<svg t="1689669870934" class="icon" viewBox="0 0 1024 1024" version="1.1" xmlns="http://www.w3.org/2000/svg" p-id="1445" width="200" height="200"><path d="M864 160v704H160V160h704M992 32H32v960h960V32z" p-id="1446"></path><path d="M544 800h-64v-64h64v64z m0-128h-64v-64h64v64z m0-128h-64v-64h64v64z m0-128h-64v-64h64v64z m0-128h-64v-64h64v64z" p-id="1447"></path><path d="M800 544h-64v-64h64v64z m-128 0h-64v-64h64v64z m-128 0h-64v-64h64v64z m-128 0h-64v-64h64v64z m-128 0h-64v-64h64v64z" p-id="1448"></path></svg>