<svg t="1689922749846" class="icon" viewBox="0 0 1024 1024" version="1.1" xmlns="http://www.w3.org/2000/svg" p-id="1613" width="200" height="200"><path d="M152.576 68.59733333h55.09333333v122.34666667h-55.09333333zM112.9472 221.15946667v55.09333333h-97.472v-55.09333333zM112.94186667 747.74613333v55.09333334h-97.47200001v-55.09333334zM991.14986667 221.1648v55.09333333h-97.47200001v-55.09333333zM991.14453333 747.7504v55.09333333h-97.472v-55.09333333zM818.99733333 68.59733333h55.09333333v122.34666667h-55.09333333zM152.576 834.58133333h55.09333333v122.34666667h-55.09333333zM818.99733333 834.58133333h55.09333333v122.34666667h-55.09333333zM874.09173333 747.74826667v55.09333333h-716.192v-55.09333333z" p-id="1614"></path><path d="M152.576 232.43733333h55.09333333v570.4h-55.09333333zM818.99733333 232.43733333h55.09333333v570.4h-55.09333333z" p-id="1615"></path><path d="M874.09386666 221.16586667v55.09333333h-721.51466665v-55.09333333zM248.576 317.16266667h529.51466666v389.67466666H248.576z" p-id="1616"></path></svg>