<svg t="1689833344469" class="icon" viewBox="0 0 1024 1024" version="1.1" xmlns="http://www.w3.org/2000/svg" p-id="1531" width="200" height="200"><path d="M992 229.57333344V767.73333313C992 832.69333344 936.72000031 885.33333312 868.56000031 885.33333312H155.46666688C87.27999969 885.33333312 32 832.69333344 32 767.76000031V229.59999969C32 164.64000031 87.27999969 111.99999969 155.43999969 111.99999969H868.53333312C936.72000031 111.99999969 992 164.64000031 992 229.57333344z m-600.69333375 399.73333312H204.8c-22.77333375 0-41.14666688 17.49333375-41.14666688 39.19999969 0 21.65333344 18.40000031 39.17333344 41.14666688 39.17333344h186.50666625c22.77333375 0 41.14666688-17.52 41.14666688-39.19999969s-18.37333312-39.19999969-41.14666688-39.19999969zM152 325.33333344a40.00000031 40.00000031 0 0 0 0 79.99999969h720a40.00000031 40.00000031 0 0 0 0-79.99999969h-720z" p-id="1532"></path></svg>