<svg t="1690196157910" class="icon" viewBox="0 0 1024 1024" version="1.1" xmlns="http://www.w3.org/2000/svg" p-id="1895" width="200" height="200"><path d="M119.3579121 28.7057122C69.23339062 28.7057122 28.7057122 69.30243159 28.7057122 119.3579121v785.2841758C28.7057122 954.69756841 69.30243159 995.2942878 119.3579121 995.2942878h785.2841758c50.0554793 0 90.6521999-40.59672061 90.6521999-90.6521999V119.3579121C995.2942878 69.23339062 954.69756841 28.7057122 904.6420879 28.7057122H119.3579121zM206.14375743 774.01454577a10.0110961 10.0110961 0 0 1-16.57008947-7.59462358V687.3667848c0-2.89976532 1.3808411-5.79953186 3.72827022-7.66366698l138.15312474-115.99062872-138.15312474-116.12871309a9.59684426 9.59684426 0 0 1-3.65922805-7.5946248V361.005056c0-8.56121283 9.94205392-13.18703013 16.5010473-7.5946248l241.64714389 202.43126439a10.0110961 10.0110961 0 0 1 0 15.4654183l-241.64714389 202.6383897z m487.57489542 2.41647131H460.90888928c-5.17815349 0-9.4587599-4.55677511-9.4587599-10.08013707v-60.41178628c0-5.52336316 4.28060641-10.08013827 9.4587599-10.08013827h232.87880453c5.10911132 0 9.38971773 4.55677511 9.38971774 10.08013827v60.41178628c0 5.52336316-4.28060641 10.08013827-9.38971774 10.08013707z" p-id="1896"></path></svg>