<svg t="1691729151716" class="icon" viewBox="0 0 1024 1024" version="1.1" xmlns="http://www.w3.org/2000/svg" p-id="1933" width="200" height="200"><path d="M16.384 517.12c0-136.704 92.16-214.528 196.096-214.528 53.76 0 96.256 24.576 124.416 53.76L284.672 418.304c-20.992-18.944-41.984-31.744-70.656-31.744-53.248 0-96.256 47.616-96.256 127.488 0 80.896 36.864 129.024 94.72 129.024 32.768 0 59.392-16.384 78.336-36.864l51.712 62.464c-34.816 39.424-79.872 60.928-133.632 60.928C104.96 727.04 16.384 655.872 16.384 517.12zM357.376 669.184l55.808-67.072c29.184 24.576 67.072 41.984 99.84 41.984 35.84 0 53.76-13.312 53.76-35.84 0-23.552-22.528-31.744-57.856-46.08l-52.224-22.016C413.696 521.728 373.76 486.4 373.76 427.52c0-68.608 62.464-123.904 148.48-123.904 47.616 0 97.792 18.432 133.632 53.76L607.232 419.84c-27.136-20.992-52.224-31.744-83.456-31.744-30.208 0-48.64 11.776-48.64 34.816s26.112 31.744 62.464 45.056l50.176 20.992c50.176 20.992 80.896 54.272 80.896 111.616 0 68.096-57.344 128-156.16 128-55.296-1.536-111.616-20.48-155.136-59.392zM697.856 669.184l55.808-67.072c29.184 24.576 67.072 41.984 99.84 41.984 35.84 0 53.76-13.312 53.76-35.84 0-23.552-22.528-31.744-57.856-46.08l-52.224-22.016c-42.496-17.92-82.944-53.248-82.944-111.616 0-68.608 62.464-123.904 148.48-123.904 47.616 0 97.792 18.432 133.632 53.76l-48.64 61.44c-27.136-20.992-52.224-31.744-83.456-31.744-30.208 0-48.64 11.776-48.64 34.816 0 22.528 26.112 31.744 62.464 45.056l50.176 20.992c50.176 20.992 80.896 54.272 80.896 111.616 0 68.096-57.344 128-156.16 128-55.296-1.536-112.128-20.48-155.136-59.392z" p-id="1934"></path></svg>