<svg t="1689670313464" class="icon" viewBox="0 0 1024 1024" version="1.1" xmlns="http://www.w3.org/2000/svg" p-id="2429" width="200" height="200"><path d="M861.52533333 884.82702222H162.47466667c-83.30353778 0-151.46097778-68.15744-151.46097778-151.46097777V162.47466667c0-83.30353778 68.15744-151.46097778 151.46097778-151.46097778h699.05066666c83.30353778 0 151.46097778 68.15744 151.46097778 151.46097778v570.89137778c0 83.30353778-68.15744 151.46097778-151.46097778 151.46097777zM162.47466667 80.91875555c-44.85575111 0-81.55591111 36.70016-81.55591112 81.55591112v570.89137778c0 44.85575111 36.70016 81.55591111 81.55591112 81.5559111h699.05066666c44.85575111 0 81.55591111-36.70016 81.55591112-81.5559111V162.47466667c0-44.85575111-36.70016-81.55591111-81.55591112-81.55591112H162.47466667z" p-id="2430"></path><path d="M482.87288889 418.79324445H249.856c-19.22389333 0-34.95253333-15.72864-34.95253333-34.95253334V197.4272c0-19.22389333 15.72864-34.95253333 34.95253333-34.95253333h233.01688889c19.22389333 0 34.95253333 15.72864 34.95253333 34.95253333v186.41351111c0 19.22389333-15.72864 34.95253333-34.95253333 34.95253334zM284.80853333 348.88817778h163.11182222V232.37973333H284.80853333v116.50844445z" p-id="2431"></path><path d="M541.12711111 640.15928889H360.53902222c-19.22389333 0-34.95253333-15.72864-34.95253333-34.95253334V383.84071111h69.90506666v186.41351111h145.63555556v69.90506667z" p-id="2432"></path><path d="M774.144 733.36604445h-233.01688889c-19.22389333 0-34.95253333-15.72864-34.95253333-34.95253334v-186.41351111c0-19.22389333 15.72864-34.95253333 34.95253333-34.95253333h233.01688889c19.22389333 0 34.95253333 15.72864 34.95253333 34.95253333v186.41351111c0 19.22389333-15.72864 34.95253333-34.95253333 34.95253334z m-198.06435555-69.90506667h163.11182222v-116.50844445h-163.11182222v116.50844445z" p-id="2433"></path><path d="M919.77955555 1012.98631111H104.22044445c-19.22389333 0-34.95253333-15.72864-34.95253334-34.95253333s15.72864-34.95253333 34.95253334-34.95253333h815.5591111c19.22389333 0 34.95253333 15.72864 34.95253334 34.95253333s-15.72864 34.95253333-34.95253334 34.95253333z" p-id="2434"></path></svg>