<svg t="1689670433283" class="icon" viewBox="0 0 1038 1024" version="1.1" xmlns="http://www.w3.org/2000/svg" p-id="2708" width="200" height="200"><path d="M1008.79449271 741.61530312h-37.69887844a140.04376406 140.04376406 0 0 0-13.23639375-31.98418874l26.58572718-26.58572719a17.75393531 17.75393531 0 0 0 0-25.11752625l-28.88967281-28.88967375a17.7765225 17.7765225 0 0 0-25.09493906 0l-26.58572812 26.58572719a139.45648313 139.45648313 0 0 0-31.89383719-13.21380657v-37.45041281a17.82169875 17.82169875 0 0 0-17.75393532-17.75393531H813.41085458a17.79911062 17.79911062 0 0 0-17.75393531 17.75393531v37.58593969a139.20801844 139.20801844 0 0 0-31.91642532 13.21380656l-26.56314-26.58572812a17.79911062 17.79911062 0 0 0-25.11752625 0l-28.88967375 28.88967375a17.79911062 17.79911062 0 0 0 0 25.11752625l26.58572719 26.56314a139.20801844 139.20801844 0 0 0-13.21380656 31.91642531h-37.49558813a17.7765225 17.7765225 0 0 0-17.75393531 17.66358469v40.81598062a17.79911062 17.79911062 0 0 0 17.75393531 17.75393531h37.56335157a140.54069344 140.54069344 0 0 0 13.23639468 31.89383813l-26.58572812 26.58572718a17.7765225 17.7765225 0 0 0 0 25.09493907l28.88967375 28.88967281a17.75393531 17.75393531 0 0 0 25.11752625 0L763.83084458 903.88536781a140.29222875 140.29222875 0 0 0 31.91642531 13.23639375v37.49558906a17.7765225 17.7765225 0 0 0 17.75393531 17.73134719h40.81598063a17.7765225 17.7765225 0 0 0 17.73134719-17.73134719v-37.60852687a141.26349937 141.26349937 0 0 0 31.91642625-13.12345594l26.56313906 26.56313906a17.75393531 17.75393531 0 0 0 25.11752719 0l28.88967281-28.88967281a17.7765225 17.7765225 0 0 0 0-25.09493906l-26.58572719-26.58572719a140.04376406 140.04376406 0 0 0 13.23639469-31.89383812H1008.79449271a17.79911062 17.79911062 0 0 0 17.73134718-17.75393532V759.32406313a17.7765225 17.7765225 0 0 0-17.73134719-17.70876001z m-174.82882782 116.23632376a78.08569219 78.08569219 0 1 1 78.08569219-78.08569219 78.08569219 78.08569219 0 0 1-78.19863094 78.08569218z" p-id="2709"></path><path d="M794.82117364 779.76593469a39.05413969 39.05413969 0 1 0 78.08569219 0 39.05413969 39.05413969 0 0 0-78.08569219 0z" p-id="2710"></path><path d="M859.71564739 70.39909625h-76.79819343c0-22.2037125-21.18726656-38.39909625-43.02957563-38.39909625H92.88569052A39.9124725 39.9124725 0 0 0 53.33462052 72.22870062v799.017435S95.37033739 991.97741188 164.60164958 991.97741188h564.87329719a232.65334969 232.65334969 0 0 1-108.03698719-97.87252032H171.49089927s-40.81598062-13.77849937-40.81598063-41.47102406l472.3992375-0.24846469 0.18070219 0.38399063a228.65532562 228.65532562 0 0 1-11.2938525-70.9028025 229.24260562 229.24260562 0 0 1 188.0652225-225.47045906l2.25877031-426.56878688h38.39909625l0.63245531 422.79664031a227.11936219 227.11936219 0 0 1 76.79819344 13.55262188V114.98722344S891.81277395 70.39909625 859.71564739 70.39909625z" p-id="2711"></path><path d="M391.58548583 963.29102844l-8.10898594-16.24055906a88.45344844 88.45344844 0 0 0 7.1603025 16.24055906zM452.97886489 830.54309281h0.02258719-0.02258719zM453.00145208 830.54309281l16.17279562-1.4682a90.66704344 90.66704344 0 0 0-16.17279562 1.4682z" p-id="2712"></path></svg>