<svg t="1689738284707" class="icon" viewBox="0 0 1024 1024" version="1.1" xmlns="http://www.w3.org/2000/svg" p-id="1367" width="200" height="200"><path d="M829.16025799 36.25718557C916.7454811 36.25718557 987.74281443 107.2545189 987.74281443 194.83974201v634.32051598C987.74281443 916.7454811 916.7454811 987.74281443 829.16025799 987.74281443H194.83974201C107.2545189 987.74281443 36.25718557 916.7454811 36.25718557 829.16025799V194.83974201C36.25718557 107.2545189 107.2545189 36.25718557 194.83974201 36.25718557h634.32051598zM372.9277531 812.18400711a14.56355555 14.56355555 0 0 0-14.56355555 14.56355556v12.79651043a14.56355555 14.56355555 0 0 0 15.27716978 14.548992c36.16616334-1.78160867 61.80772978-2.95154688 76.92955534-3.50981689 25.75807488-0.94663111 46.85095822-1.42237355 63.28835754-1.42237354 22.75312867 0 65.10394823 1.42237355 127.05245867 4.26712178a62345.14924999 62345.14924999 0 0 0 20.51519602 0.82526776 14.56355555 14.56355555 0 0 0 14.56355555-14.56355555v-12.94214599a14.56355555 14.56355555 0 0 0-14.56355555-14.56355556h-2.02918912c-18.33066155 0-32.54954667-1.73791801-42.66636288-5.21375289-10.11196245-3.47583488-17.53937579-9.16533134-22.28224-17.06848711-4.10692267-8.21870023-7.10701511-20.69966734-9.00513223-37.45260999-1.89326222-16.74808889-2.84474823-45.98199979-2.84474824-87.70173155v-88.65321757c0-43.39939555 0.16019911-100.44969757 2.18453334-306.09681067a14.56355555 14.56355555 0 0 1 14.56355556-14.37908423h69.06038044c48.35100445 0 80.75006066 6.71865401 97.18746112 20.14625223 9.84496355 8.05364622 19.64623645 29.86014379 29.40867356 65.43405512a14.56355555 14.56355555 0 0 0 16.28205512 10.53430556l15.72864-2.44667734a14.56355555 14.56355555 0 0 0 12.2188231-16.1606929c-3.81079666-31.08833621-6.31087445-54.31235357-7.5099409-69.68175844a987.12750421 987.12750421 0 0 1-3.07776398-76.56546645 11.47122688 11.47122688 0 0 0-14.01985024-11.18481067c-13.01011001 2.96611043-25.165824 4.87879111-36.47199688 5.73318713-22.91332779 1.73791801-63.44855666 2.60687645-121.60083512 2.60687645H372.11219399c-51.83654912 0-88.65321757-0.86895843-110.45971399-2.60687645-10.27216157-0.81555911-21.72882489-2.51464021-34.36999111-5.09724444a14.56355555 14.56355555 0 0 0-17.44228466 13.29167132c-1.95637134 29.03972978-4.04381355 51.59382243-6.26232889 67.65742421-2.32046023 16.79177955-6.946816 42.01585778-13.88392334 75.67223467a14.56355555 14.56355555 0 0 0 11.23820999 17.18499556l17.34034091 3.68943445a14.56355555 14.56355555 0 0 0 16.9034331-9.82069134c11.69939001-36.66132423 23.04925355-59.17172622 34.05930155-67.52635222 18.33066155-13.90334066 52.30743666-20.85501155 101.92547157-20.85501155h66.977792a14.56355555 14.56355555 0 0 1 14.56355555 14.56355555v256.604994c0 92.28439666-0.63108779 155.49508267-1.89326222 189.62720312-1.26217443 34.13697422-3.48068978 55.62792733-6.64098133 64.47771421-4.73801045 11.68968021-12.01007843 19.83070777-21.80649757 24.41337401s-25.28233245 6.87399822-46.45774222 6.87399822h-2.97582023z" p-id="1368"></path></svg>