<svg t="1689914316042" class="icon" viewBox="0 0 1024 1024" version="1.1" xmlns="http://www.w3.org/2000/svg" p-id="1461" width="200" height="200"><path d="M369.50000029 359H174.5c-47.99999971 0-90-38.99999971-90-90V152c0-47.99999971 38.99999971-90 90-90h195.00000029c47.99999971 0 90 38.99999971 90 90v117c0 47.99999971-38.99999971 90-90 90zM174.5 122.00000029c-18 0-29.99999971 11.99999971-29.99999971 29.99999971v117c0 15.00000029 11.99999971 29.99999971 29.99999971 29.99999971h195.00000029c15.00000029 0 29.99999971-11.99999971 29.99999971-29.99999971V152c0-15.00000029-11.99999971-29.99999971-29.99999971-29.99999971H174.5z" p-id="1462"></path><path d="M369.50000029 962H174.5c-47.99999971 0-90-38.99999971-90-90V541.99999971c0-47.99999971 38.99999971-90 90-90h195.00000029c47.99999971 0 90 38.99999971 90 90v330.00000029c0 47.99999971-38.99999971 90-90 90zM174.5 512c-15.00000029 0-29.99999971 11.99999971-29.99999971 29.99999971v330.00000029c0 15.00000029 11.99999971 29.99999971 29.99999971 29.99999971h195.00000029c15.00000029 0 29.99999971-11.99999971 29.99999971-29.99999971V541.99999971c0-15.00000029-11.99999971-29.99999971-29.99999971-29.99999971H174.5z" p-id="1463"></path><path d="M849.5 962H654.49999971c-47.99999971 0-90-38.99999971-90-90v-117c0-47.99999971 38.99999971-90 90-90h195.00000029c47.99999971 0 90 38.99999971 90 90V872c0 47.99999971-38.99999971 90-90 90zM654.49999971 725.00000029c-15.00000029 0-29.99999971 11.99999971-29.99999971 29.99999971V872c0 15.00000029 11.99999971 29.99999971 29.99999971 29.99999971h195.00000029c15.00000029 0 29.99999971-11.99999971 29.99999971-29.99999971v-117c0-15.00000029-11.99999971-29.99999971-29.99999971-29.99999971H654.49999971z" p-id="1464"></path><path d="M849.5 572.00000029H654.49999971c-47.99999971 0-90-38.99999971-90-90V152c0-47.99999971 38.99999971-90 90-90h195.00000029c47.99999971 0 90 38.99999971 90 90v330.00000029c0 51.00000029-38.99999971 90-90 90zM654.49999971 122.00000029c-15.00000029 0-29.99999971 11.99999971-29.99999971 29.99999971v330.00000029c0 15.00000029 11.99999971 29.99999971 29.99999971 29.99999971h195.00000029c15.00000029 0 29.99999971-11.99999971 29.99999971-29.99999971V152c0-15.00000029-11.99999971-29.99999971-29.99999971-29.99999971H654.49999971z" p-id="1465"></path></svg>