<svg t="1689729265846" class="icon" viewBox="0 0 1170 1024" version="1.1" xmlns="http://www.w3.org/2000/svg" p-id="1337" width="200" height="200"><path d="M992 152a37.37142844 37.37142844 0 0 1 34.28571469 40.11428531v639.77142938a37.37142844 37.37142844 0 0 1-34.28571469 40.11428531H169.14285688a37.37142844 37.37142844 0 0 1-34.28571376-40.11428531V192.11428531A37.37142844 37.37142844 0 0 1 169.14285688 152h822.85714312M992 32H169.14285688C93.37142844 32 32 103.65714313 32 192.11428531v639.77142938C32 920.34285687 93.37142844 992 169.14285688 992h822.85714312c75.77142844 0 137.14285688-71.65714313 137.14285688-160.11428531V192.11428531C1129.14285688 103.65714313 1067.77142844 32 992 32z" p-id="1338"></path><path d="M323.42857156 306.28571469A51.42857156 51.42857156 0 0 0 272 357.71428531v308.57142938a51.42857156 51.42857156 0 0 0 102.85714313 0v-308.57142938A51.42857156 51.42857156 0 0 0 323.42857156 306.28571469z" p-id="1339"></path><path d="M374.85714312 306.28571469H272a51.42857156 51.42857156 0 0 0 0 102.85714219h102.85714313a51.42857156 51.42857156 0 0 0 0-102.85714219zM374.85714312 614.85714313H272a51.42857156 51.42857156 0 0 0 0 102.85714218h102.85714313a51.42857156 51.42857156 0 0 0 0-102.85714218z" p-id="1340"></path><path d="M553.48571469 614.85714313a51.42857156 51.42857156 0 1 0 51.42857062 51.42857156 51.42857156 51.42857156 0 0 0-51.42857062-51.42857156zM732.11428531 614.85714313a51.42857156 51.42857156 0 1 0 51.42857156 51.42857156 51.42857156 51.42857156 0 0 0-51.42857156-51.42857156z" p-id="1341"></path></svg>