<svg t="1692238780429" class="icon" viewBox="0 0 1024 1024" version="1.1" xmlns="http://www.w3.org/2000/svg" p-id="1819" width="200" height="200"><path d="M924 0H100C45 0 0 45 0 100v824c0 55 45 100 100 100h824c55 0 100-45 100-100V100c0-55-45-100-100-100z m55 924c0 14.58-5.75 28.36-16.19 38.81S938.58 979 924 979H100c-14.58 0-28.36-5.75-38.81-16.19S45 938.58 45 924V315h934v609zM45 270V100c0-14.58 5.75-28.36 16.19-38.81C71.64 50.75 85.42 45 100 45h824c14.58 0 28.36 5.75 38.81 16.19C973.25 71.64 979 85.42 979 100v170H45z" p-id="1820"></path><path d="M157.5 157.5m-22.5 0a22.5 22.5 0 1 0 45 0 22.5 22.5 0 1 0-45 0Z" p-id="1821"></path><path d="M292.5 157.5m-22.5 0a22.5 22.5 0 1 0 45 0 22.5 22.5 0 1 0-45 0Z" p-id="1822"></path><path d="M427.5 157.5m-22.5 0a22.5 22.5 0 1 0 45 0 22.5 22.5 0 1 0-45 0Z" p-id="1823"></path><path d="M319.8 722.92l34.15-22.38c9.71 16.11 22.77 22.97 36.83 22.97 21.76 0 33.15-10.44 33.15-40.87V536.76h49.56v149.46c0 41.47-23.44 75.48-76.68 75.48-36.16 0-60.27-13.13-77.01-38.78zM516.68 729.48l28.46-30.43c17.75 14.62 41.19 24.46 62.95 24.46 25.78 0 39.51-9.84 39.51-25.36 0-16.41-15.07-21.48-37.17-29.83l-33.15-12.53c-25.11-9.25-50.23-27.15-50.23-59.37 0-36.1 35.49-63.84 85.72-63.84 28.8 0 57.59 10.14 77.68 28.34l-25.11 27.74c-15.74-11.63-32.14-18.2-52.57-18.2-21.76 0-35.83 8.65-35.83 23.27 0 15.81 17.75 21.48 38.84 28.94l32.48 12.23c30.13 11.04 49.89 28.04 49.89 59.96 0 36.1-33.82 66.83-91.08 66.83-33.13 0.01-66.28-11.63-90.39-32.21z" p-id="1824"></path></svg>