<svg t="1689900910465" class="icon" viewBox="0 0 1024 1024" version="1.1" xmlns="http://www.w3.org/2000/svg" p-id="1428" width="200" height="200"><path d="M512 809.28125c-20.53125 0-37.153125-16.65-37.153125-37.18125v-86.709375a37.153125 37.153125 0 1 1 74.30625 0v86.709375c0 20.53125-16.65 37.153125-37.153125 37.153125z m0-433.51875c-20.53125 0-37.153125-16.65-37.153125-37.153125V251.9a37.153125 37.153125 0 1 1 74.30625 0v86.709375c0 20.53125-16.65 37.125-37.153125 37.125zM338.58125 549.125H251.9a37.153125 37.153125 0 0 1 0-74.30625h86.68125a37.153125 37.153125 0 1 1 0 74.30625z m433.51875 0h-86.709375a37.153125 37.153125 0 1 1 0-74.30625h86.709375a37.153125 37.153125 0 1 1 0 74.30625z m-76.303125 183.825c-9.84375 0-19.29375-3.9375-26.26875-10.9125l-61.284375-61.25625a37.125 37.125 0 1 1 52.565625-52.5375l61.25625 61.25625a37.125 37.125 0 0 1-26.26875 63.45zM389.459375 426.6125c-9.84375 0-19.321875-3.88125-26.26875-10.884375L301.90625 354.5a37.125 37.125 0 1 1 52.5375-52.5375l61.284375 61.25625a37.125 37.125 0 0 1-26.26875 63.421875zM328.175 732.978125A37.125 37.125 0 0 1 301.90625 669.5l61.284375-61.25625a37.153125 37.153125 0 1 1 52.5375 52.5375L354.5 722.065625a37.06875 37.06875 0 0 1-26.296875 10.9125z m306.365625-306.365625a37.153125 37.153125 0 0 1-26.296875-63.421875l61.284375-61.284375a37.153125 37.153125 0 0 1 52.5375 52.565625l-61.25625 61.25625a37.040625 37.040625 0 0 1-26.26875 10.884375z" p-id="1429"></path><path d="M924.48125 962H99.490625A37.490625 37.490625 0 0 1 62 924.509375V99.490625C62 78.790625 78.790625 62 99.490625 62h824.990625C945.209375 62 962 78.790625 962 99.490625v825.01875c0 20.7-16.790625 37.490625-37.51875 37.490625z m-787.5-75.009375h750.009375V137.009375H136.98125v749.98125z" p-id="1430"></path></svg>