<svg t="1689670600731" class="icon" viewBox="0 0 1024 1024" version="1.1" xmlns="http://www.w3.org/2000/svg" p-id="3130" width="200" height="200"><path d="M504.552727 867.607273H203.869091a33.047273 33.047273 0 0 1-31.185455-34.443637v-213.876363h40.261819a34.909091 34.909091 0 0 0 0-69.818182H172.683636v-160.116364h40.261819a34.909091 34.909091 0 1 0 0-69.818182H172.683636V142.196364a33.047273 33.047273 0 0 1 31.185455-34.676364h624.174545a33.047273 33.047273 0 0 1 31.185455 34.676364v333.498181a34.909091 34.909091 0 0 0 69.818182 0V142.196364a103.098182 103.098182 0 0 0-101.003637-104.494546H203.869091a103.098182 103.098182 0 0 0-101.003636 104.494546v177.338181H69.818182a34.909091 34.909091 0 0 0 0 69.818182h33.047273v160.116364H69.818182a34.909091 34.909091 0 0 0 0 69.818182h33.047273v213.876363a102.865455 102.865455 0 0 0 101.003636 104.261819h300.683636a34.909091 34.909091 0 0 0 0-69.818182z" p-id="3131"></path><path d="M726.109091 288.814545a34.909091 34.909091 0 0 0-34.909091-34.90909H329.774545a34.909091 34.909091 0 1 0 0 69.818181H691.2a34.909091 34.909091 0 0 0 34.909091-34.909091zM329.774545 415.650909a34.909091 34.909091 0 0 0 0 69.818182H605.090909a34.909091 34.909091 0 0 0 0-69.818182zM525.265455 577.163636h-195.49091a34.909091 34.909091 0 1 0 0 69.818182h195.49091a34.909091 34.909091 0 0 0 0-69.818182zM947.2 749.614545l-74.24-128.930909a29.789091 29.789091 0 0 0-25.367273-14.429091H698.181818a29.090909 29.090909 0 0 0-25.134545 14.429091l-74.472728 128.930909a28.392727 28.392727 0 0 0 0 29.09091L674.909091 907.636364a28.858182 28.858182 0 0 0 25.134545 14.661818h148.712728a29.323636 29.323636 0 0 0 24.203636-14.661818l74.24-128.930909a28.392727 28.392727 0 0 0 0-29.09091z m-116.363636 114.501819h-116.363637l-57.716363-99.84 57.716363-99.84h116.363637l57.716363 99.84z" p-id="3132"></path><path d="M773.352727 691.432727a72.843636 72.843636 0 1 0 72.610909 72.843637 72.843636 72.843636 0 0 0-72.610909-72.843637z m0 87.505455a14.661818 14.661818 0 0 1-14.661818-14.661818 14.661818 14.661818 0 1 1 14.661818 14.661818z" p-id="3133"></path></svg>