<svg t="1689670877971" class="icon" viewBox="0 0 1381 1024" version="1.1" xmlns="http://www.w3.org/2000/svg" p-id="1304" width="200" height="200"><path d="M79.02814815 32m24.53569592 0l118.93678687 0q24.53569594 0 24.53569595 24.53569594l0 121.49258812q0 24.53569594-24.53569595 24.53569594l-118.93678687 0q-24.53569594 0-24.53569592-24.53569594l0-121.49258812q0-24.53569594 24.53569592-24.53569594Z" p-id="1305"></path><path d="M322.79028783 32m24.53569592 0l798.61645971 0q24.53569594 0 24.53569593 24.53569594l0 121.49258812q0 24.53569594-24.53569593 24.53569594l-798.61645971 0q-24.53569594 0-24.53569592-24.53569594l0-121.49258812q0-24.53569594 24.53569592-24.53569594Z" p-id="1306"></path><path d="M79.02814815 422.97631625m24.53569592 0l118.93678687 0q24.53569594 0 24.53569595 24.53569594l0 121.49258812q0 24.53569594-24.53569595 24.53569594l-118.93678687 0q-24.53569594 0-24.53569592-24.53569594l0-121.49258812q0-24.53569594 24.53569592-24.53569594Z" p-id="1307"></path><path d="M850.06239595 520.54660062l51.77031844-50.68665843a26.88703312 26.88703312 0 0 1 37.82586469 0.20446406l27.25506937 27.25506937a234.49991438 234.49991438 0 0 1 53.67183469-22.24569843v-52.09746094H322.79028783v170.56398h550.31521592c0.96098156-1.79928469 1.94240906-3.59856844 2.94428345-5.37740624L849.8579319 561.95058781a29.13613875 29.13613875 0 0 1 0.20446405-41.40398718z" p-id="1308"></path><path d="M79.02814815 813.93218562m24.53569592 1e-8l118.93678687 0q24.53569594 0 24.53569595 24.53569687l0 121.49258812q0 24.53569594-24.53569595 24.53569594l-118.93678687 0q-24.53569594 0-24.53569592-24.53569593l0-121.49258813q0-24.53569594 24.53569592-24.53569688Z" p-id="1309"></path><path d="M965.8913272 915.91889563l-25.25131968 25.25132062a28.62497906 28.62497906 0 0 1-40.56568499-0.18401719l-49.0713919-49.93014187a29.91310311 29.91310311 0 0 1 0.18401814-42.11961188l23.84051812-23.86096406a2.20821281 2.20821281 0 0 0 0.36803531-2.61714094c-1.34946375-2.41267687-2.63758688-4.86624656-3.88481906-7.31981625a2.22865875 2.22865875 0 0 0-2.04464062-1.20633843H324.99850065a2.20821281 2.20821281 0 0 0-2.20821282 2.20821281v166.14755531a2.20821281 2.20821281 0 0 0 2.20821281 2.20821281h693.521895a2.20821281 2.20821281 0 0 0 2.20821281-2.20821281v-43.63264594a2.18776594 2.18776594 0 0 0-1.59482062-2.04464156A235.68580687 235.68580687 0 0 1 968.44712939 915.57130719a2.16732 2.16732 0 0 0-2.55580219 0.34758843z" p-id="1310"></path><path d="M1347.17604407 647.58016719H1291.09153158a209.75975437 209.75975437 0 0 0-19.73078813-47.59925062l39.66604126-39.6660422a26.5803375 26.5803375 0 0 0 0-37.47827531L1267.9052994 479.7764525a26.5803375 26.5803375 0 0 0-37.47827626 0l-39.64559531 39.66604219a208.08314907 208.08314907 0 0 0-47.61969657-19.73078906v-56.02317282a26.5803375 26.5803375 0 0 0-26.58033749-26.5803375H1055.75331409a26.5803375 26.5803375 0 0 0-26.47810501 26.5803375v56.08451157a209.92332563 209.92332563 0 0 0-47.61969655 19.73078906L942.00991721 479.7764525a26.5803375 26.5803375 0 0 0-37.47827625 0l-43.12148531 43.10103938a26.5803375 26.5803375 0 0 0 0 37.47827531l39.66604124 39.66604219a209.92332563 209.92332563 0 0 0-19.73078811 47.61969656H825.32223595a26.5803375 26.5803375 0 0 0-26.5803375 26.47810594v60.90986531a26.5803375 26.5803375 0 0 0 26.5803375 26.5803375h56.08451157a207.91957781 207.91957781 0 0 0 19.73078906 47.59924969l-39.66604219 39.66604219a26.5803375 26.5803375 0 0 0 0 37.47827531l43.18282501 43.03970062a26.5803375 26.5803375 0 0 0 37.47827625 0l39.66604124-39.64559531a209.75975437 209.75975437 0 0 0 47.59925063 19.73078812v55.94138719a26.5803375 26.5803375 0 0 0 26.58033749 26.5803375h60.90986532a26.5803375 26.5803375 0 0 0 26.5803375-26.5803375v-56.08451156a209.75975437 209.75975437 0 0 0 47.59924968-19.73078906l39.66604219 39.66604218a26.5803375 26.5803375 0 0 0 37.47827532 0l43.10103937-43.10103937a26.5803375 26.5803375 0 0 0 0-37.47827625L1271.48342189 808.9637075a208.08314907 208.08314907 0 0 0 19.73078905-47.61969656h55.96183313a26.5803375 26.5803375 0 0 0 26.47810501-26.478105V674.01737937a26.5803375 26.5803375 0 0 0-26.47810501-26.43721218z m-260.89623468 173.4878175a116.54455594 116.54455594 0 1 1 116.54455595-116.54455688 116.54455594 116.54455594 0 0 1-116.54455595 116.54455688z" p-id="1311"></path><path d="M1028.00753095 704.54387469a58.27227843 58.27227843 0 0 0 116.54455689 0 58.27227843 58.27227843 0 1 0-116.54455689 0z" p-id="1312"></path></svg>