<svg t="1689669941804" class="icon" viewBox="0 0 1024 1024" version="1.1" xmlns="http://www.w3.org/2000/svg" p-id="1725" width="200" height="200"><path d="M931.3527277 250.01134459c0 27.96202667-15.06842548 53.36086755-38.83614815 66.25446874l-90.0998637 48.70052978-76.66255644 40.85562786L566.75896889 491.80520297c-17.08790518 9.32067555-35.7292563 13.98101333-54.91431348 13.98101333-19.10738489 0-37.748736-4.66033778-54.83664119-13.98101333L131.32807585 316.26581333a75.18678282 75.18678282 0 0 1-38.83614815-66.25446874c0-27.96202667 14.99075318-53.36086755 38.83614815-66.25446874l101.98372504-54.91431348L314.55702282 84.80237037l142.4509914-76.58488415c34.17581037-18.64135111 75.5751443-18.64135111 109.75095467 0l325.75761066 175.53938963c23.76772267 12.89360118 38.83614815 38.29244208 38.83614815 66.25446874z m-528.17161481 302.92195556L100.33682963 401.70533925a73.86635378 73.86635378 0 0 0-72.46825245 3.10689186 73.16730311 73.16730311 0 0 0-35.26322251 63.22524919v286.30008415c0 49.71026963 27.49599289 94.2941677 72.00221866 116.50844444l302.92195556 151.22796089c10.33041541 5.12637155 21.74824297 7.76722963 33.16607052 7.76722963a70.68178963 70.68178963 0 0 0 38.83614814-11.41782756 73.16730311 73.16730311 0 0 0 35.18555023-63.14757688V668.89803852a127.69325511 127.69325511 0 0 0-71.4585126-115.96473837z m628.21353244-84.89581985v286.30008415c0 49.24423585-27.49599289 93.75046163-72.00221866 116.04241066l-302.92195556 151.69399467a74.09937067 74.09937067 0 0 1-72.46825244-3.65059793 74.33238755 74.33238755 0 0 1-35.26322252-63.14757688v-285.83405038c0-49.71026963 27.41832059-94.21649541 72.00221867-116.50844444l111.30440059-55.38034726 77.67229629-38.83614814L923.66317037 401.70533925c23.30168889-11.88386133 50.17630341-10.87412148 72.46825245 3.10689186 21.74824297 13.43730725 35.26322252 37.28270222 35.26322251 63.22524919z" p-id="1726"></path><path d="M802.49438815 364.96634311l-76.58488415 40.85562786-492.44235852-276.9794086L314.7900397 84.80237037l475.35445333 268.20243911c5.12637155 3.10689185 9.32067555 7.30119585 12.42756742 11.96153363z m7.22352355 93.67278934v117.5181843c0 21.20453689-17.55393897 38.83614815-38.83614815 38.83614814a39.14683733 39.14683733 0 0 1-38.83614814-38.83614814V497.47528059l77.67229629-38.83614814z" p-id="1727"></path></svg>