<svg t="1689670699273" class="icon" viewBox="0 0 1024 1024" version="1.1" xmlns="http://www.w3.org/2000/svg" p-id="3411" width="200" height="200"><path d="M905.7908768 63.59578987c0-31.61824533-25.86947413-60.3621056-60.36210453-60.3621056H224.56140373c-31.61824533 0-57.48771947 25.86947413-57.48771946 60.3621056v554.75649066c-11.49754347 0-20.12070187 2.87438613-28.7438592 8.6231584-11.49754347 5.74877227-25.86947413 25.86947413-17.2463168 63.23649067v5.74877227c17.24631573 34.49263147 31.61824533 68.98526293 40.24140373 94.85473706 5.74877227 17.24631573 11.49754347 34.49263147 17.24631573 45.99017494l2.87438614 5.74877226c8.6231584 14.3719296 20.12070187 40.24140373 45.990176 60.3621056 0 0 11.49754347 11.49754347 14.3719296 25.86947307h-14.3719296c-11.49754347 0-20.12070187 8.6231584-20.12070187 20.12070187V1000.64561387c0 11.49754347 8.6231584 20.12070187 20.12070187 20.12070186s20.12070187-8.6231584 20.12070186-20.12070186v-28.7438592h313.30806934v28.7438592c0 11.49754347 8.6231584 20.12070187 20.12070186 20.12070186s17.24631573-8.6231584 17.24631574-20.12070186v-48.86456107c0-11.49754347-8.6231584-20.12070187-20.12070187-20.12070187h-14.3719296v-8.6231584l34.49263147-60.36210453c2.87438613-2.87438613 2.87438613-5.74877227 2.87438613-11.49754453v-160.96561387h117.84982507c2.87438613 0 5.74877227 0 8.62315733-2.87438613l2.87438613-2.87438507s2.87438613 0 2.87438614-2.87438613l163.84-155.21684267s2.87438613-2.87438613 2.87438613-5.7487712v-2.87438613-2.87438614V63.59578987zM741.9508768 572.3621056c0-20.12070187 14.3719296-34.49263147 34.49263147-34.49263147h60.3621056L741.9508768 626.97543893v-54.61333333zM224.56140373 43.475088h620.86736854c11.49754347 0 20.12070187 8.6231584 20.12070186 20.12070187v434.03228053h-89.10596586c-40.24140373 0-74.7340352 34.49263147-74.73403414 74.7340352V655.71929813H598.23157867c-5.74877227-20.12070187-20.12070187-31.61824533-31.61824534-34.49263146-11.49754347-5.74877227-22.995088-5.74877227-37.3670176-2.87438614-5.74877227-17.24631573-17.24631573-31.61824533-31.61824533-37.3670176-14.3719296-8.6231584-34.49263147-8.6231584-51.7389472-2.87438613-5.74877227-8.6231584-14.3719296-14.3719296-22.995088-20.12070187-11.49754347-5.74877227-25.86947413-8.6231584-40.24140373-5.7487712v-103.47789546c0-34.49263147-28.7438592-66.1108768-66.1108768-66.1108768-34.49263147 0-66.1108768 28.7438592-66.11087787 66.1108768v250.07157973l-17.24631573-25.86947413c0-2.87438613-2.87438613-2.87438613-2.87438614-5.74877227-5.74877227-8.6231584-14.3719296-20.12070187-28.7438592-31.61824533V63.59578987c5.74877227-11.49754347 14.3719296-20.12070187 22.995088-20.12070187z m60.36210454 888.18526293c-5.74877227-31.61824533-22.995088-51.7389472-28.7438592-57.48771946-20.12070187-17.24631573-28.7438592-34.49263147-34.49263147-48.86456107l-2.87438613-8.6231584c-5.74877227-8.6231584-11.49754347-22.995088-17.24631574-40.24140373-8.6231584-25.86947413-22.995088-60.3621056-40.24140373-97.72912214-2.87438613-11.49754347 0-17.24631573 0-20.12070186 2.87438613-2.87438613 11.49754347-2.87438613 22.995088 5.74877226 5.74877227 5.74877227 11.49754347 11.49754347 14.3719296 20.12070187 2.87438613 2.87438613 2.87438613 5.74877227 2.87438613 5.7487712l40.24140374 66.11087787c2.87438613 5.74877227 11.49754347 8.6231584 17.24631573 8.62315733h2.87438613c8.6231584 0 14.3719296-5.74877227 17.24631574-11.49754347l11.49754346-28.74386026c0-2.87438613 2.87438613-5.74877227 2.87438614-8.62315734v-270.19228053c0-14.3719296 11.49754347-25.86947413 25.86947413-25.86947413s25.86947413 11.49754347 25.86947307 25.86947413v224.20210453c0 11.49754347 8.6231584 20.12070187 20.12070186 20.12070187s20.12070187-8.6231584 20.12070187-20.12070187v-80.4828064c8.6231584-2.87438613 17.24631573 0 22.995088 2.87438614 5.74877227 2.87438613 8.6231584 8.6231584 11.49754347 14.3719296v74.7340352c0 11.49754347 8.6231584 20.12070187 20.12070186 20.12070186s20.12070187-8.6231584 20.12070187-20.12070186v-68.985264c8.6231584-2.87438613 17.24631573 0 22.995088 2.87438613 5.74877227 2.87438613 8.6231584 8.6231584 11.49754347 14.37193067v74.73403413c0 11.49754347 8.6231584 20.12070187 20.12070186 20.12070187s20.12070187-8.6231584 20.12070187-20.12070187V655.71929813c5.74877227-2.87438613 14.3719296-2.87438613 17.24631573 0 2.87438613 0 5.74877227 2.87438613 8.62315734 14.3719296v181.08631574l-34.49263147 60.3621056c-2.87438613 2.87438613-2.87438613 5.74877227-2.87438613 11.49754346v14.37193067h-238.5740352z" p-id="3412"></path><path d="M319.4161408 218.81263147h436.90666667c11.49754347 0 20.12070187-8.6231584 20.1207008-20.12070187s-8.6231584-20.12070187-20.1207008-20.12070187H319.4161408c-11.49754347 0-20.12070187 8.6231584-20.12070187 20.12070187s8.6231584 20.12070187 20.12070187 20.12070187zM756.32280747 339.5368416H463.13543893c-11.49754347 0-20.12070187 8.6231584-20.12070186 20.12070187s8.6231584 20.12070187 20.12070186 20.12070186h293.18736854c11.49754347 0 20.12070187-8.6231584 20.1207008-20.12070186s-8.6231584-20.12070187-20.1207008-20.12070187z" p-id="3413"></path></svg>