<svg t="1689670367127" class="icon" viewBox="0 0 1024 1024" version="1.1" xmlns="http://www.w3.org/2000/svg" p-id="2568" width="200" height="200"><path d="M63.31733334 423.59466667h88.40533333c24.46222222 0 44.25955555-19.79733333 44.25955555-44.25955556s-19.79733333-44.25955555-44.25955555-44.25955556h-88.40533333c-24.46222222 0-44.25955555 19.79733333-44.25955556 44.25955556s19.79733333 44.25955555 44.25955556 44.25955556zM195.86844445 644.66488889c0-24.46222222-19.79733333-44.25955555-44.25955556-44.25955556h-88.40533333c-24.46222222 0-44.25955555 19.79733333-44.25955556 44.25955556s19.79733333 44.25955555 44.25955556 44.25955556H151.60888889c24.46222222-0.11377778 44.25955555-19.91111111 44.25955556-44.25955556z" p-id="2569"></path><path d="M903.33866667 40.39111111H166.4c-32.54044445 0-58.93688889 26.39644445-58.93688888 58.93688889v221.07022222h44.25955555c32.54044445 0 58.93688889 26.39644445 58.93688889 58.93688889 0 32.54044445-26.39644445 58.93688889-58.93688889 58.93688889h-44.25955555v147.34222222h44.25955555c32.54044445 0 58.93688889 26.39644445 58.93688889 58.93688889 0 32.54044445-26.39644445 58.93688889-58.93688889 58.93688889h-44.25955555v221.07022222c0 32.54044445 26.39644445 58.93688889 58.93688888 58.93688889h736.93866667c32.54044445 0 58.93688889-26.39644445 58.93688889-58.93688889V99.328c0-32.54044445-26.39644445-58.93688889-58.93688889-58.93688889z m-354.19022222 822.61333334c-17.74933333 0-166.912-81.46488889-166.912-103.53777778 0-22.07288889 116.05333333-419.38488889 116.05333333-419.38488889l-95.11822222-118.32888889s-13.99466667-26.28266667 27.98933333-26.28266667h237.68177778c41.984 0 20.93511111 26.28266667 20.93511111 26.28266667l-89.88444444 118.32888889s116.05333333 399.70133333 116.05333333 419.38488889c0.11377778 19.68355555-149.04888889 103.53777778-166.79822222 103.53777778z m192.512-288.54044445l-31.744 45.73866667-84.76444445-273.06666667 117.64622222 195.35644445c5.23377778 8.98844445 4.77866667 23.43822222-1.13777777 31.97155555z" p-id="2570"></path></svg>