<svg t="1692237646152" class="icon" viewBox="0 0 1024 1024" version="1.1" xmlns="http://www.w3.org/2000/svg" p-id="1813" width="200" height="200"><path d="M204.08482589 129.18653952l-49.9321913-74.89828523L95.89841237 95.89841237c-49.93219015 33.28812715-83.2203173 83.2203173-83.2203173 141.47453952v540.93206414c0 66.57625429 33.28812715 116.50844445 83.2203173 149.7965716l66.5762543 41.61015808 41.61015922-74.89828523-24.96609622-16.64406414c-49.93219015-33.28812715-83.2203173-83.2203173-83.2203173-141.47453952V287.30514318c0-58.25422222 33.28812715-108.18641237 83.2203173-141.47453952l24.96609622-16.64406414z m665.76253952-74.89828523l-41.61015922 74.89828523 16.64406414 16.64406414c49.93219015 33.28812715 83.2203173 83.2203173 83.2203173 141.47453952v449.38971364c0 58.25422222-33.28812715 108.18641237-83.2203173 141.47453952l-24.96609622 16.64406414 41.61015922 74.89828523 66.5762543-41.61015808c49.93219015-33.28812715 83.2203173-83.2203173 83.2203173-141.47453952V237.37295189c0-58.25422222-33.28812715-108.18641237-83.2203173-141.47453952l-58.25422222-41.61015808zM437.10171477 445.42374571c8.32203207-16.64406301 8.32203207-33.28812715 8.32203094-58.25422222C445.42374571 303.94920619 412.13561856 262.33904811 345.55936541 262.33904811H245.69498397v416.10158648h58.25422222V503.67796793H345.55936541L395.49155555 678.44063459h66.5762543l-66.5762543-191.40672966c24.96609507-8.32203207 33.28812715-24.96609507 41.61015922-41.61015922z m-49.93219128-33.28812715c0 8.32203207 0 16.64406301-8.32203094 16.64406414 0 8.32203207-8.32203207 8.32203207-16.64406414 16.64406301h-58.25422222V320.59327033h33.28812714c16.64406301 0 33.28812715 8.32203207 41.61015922 16.644063 8.32203207 8.32203207 8.32203207 8.32203207 8.32203094 16.64406301v58.25422222zM586.89828523 761.66095189H761.66095189v-58.25422222H645.15250745V578.57625429h99.86438144v-49.93219128H645.15250745V403.81358763H761.66095189V345.55936541H586.89828523v416.10158648z" p-id="1814"></path></svg>