<svg t="1689670019991" class="icon" viewBox="0 0 1024 1024" version="1.1" xmlns="http://www.w3.org/2000/svg" p-id="2004" width="200" height="200"><path d="M314.16637344 615.55870295a39.55825875 39.55825875 0 1 0 79.11651843 0 39.55825875 39.55825875 0 0 0-79.11651843 0z m553.92145406-45.18827344c68.13164063-17.652 118.67477719-79.01069062 118.67477719-152.64535312a158.27536688 158.27536688 0 0 0-316.50840281 0c0 73.63466156 50.50080562 134.99335312 118.65361125 152.64535314v361.67551124l79.13768342-79.13768344v-39.55825969h79.11651845v-39.57942375h-79.11651845V694.67522045h79.11651845v-39.55825874h-79.11651845v-84.74653218z m-39.55825875-73.50766968a79.11651844 79.11651844 0 1 1-0.04233094-158.23303594 79.11651844 79.11651844 0 0 1 0.04233094 158.23303594zM155.9333375 417.74624234c0.08466187 0 0.10582688-0.08466187 0.19048969-0.08466189 39.36777001 67.39084875 104.30342437 118.75943906 177.83225906 118.75943907 73.57116562 0 138.485655-51.38975531 177.83225906-118.75943907 0.08466187 0 0.12699281 0.08466187 0.21165469 0.08466189 21.86392781 0 79.11651844-57.27375562 79.11651844-79.13768345s-17.71549687-39.55825875-39.53709375-39.55825969c-0.3598125 0-0.65612906 0.21165469-1.03710844 0.21165469 0.59263312-6.68828812 1.0371075-13.39774125 1.03710844-19.98020156 0-120.19869094-97.44581344-217.60217344-217.62333844-217.6021725-120.15636 0-217.60217344 97.4246475-217.60217344 217.6021725 0 6.60362625 0.44447438 13.29191344 1.03710844 19.98020156-0.40214345 0-0.677295-0.21165469-1.03710844-0.21165469-21.86392781 0-39.53709375 17.69433094-39.53709375 39.55825969s57.21025875 79.13768345 79.11651844 79.13768345z m309.46030312 186.40427343l-72.06841781 288.35833124H365.0058275l28.29823031-197.81246062h-79.13768437l28.25589937 197.81246062h-28.25589937L242.07679063 604.15051578C137.09607125 652.78876014 37.21622938 756.73237201 37.21622938 852.92942234c0 131.12007188 185.43066187 118.69594219 316.52956874 118.69594311 131.07774094 0 316.52956875 12.42412969 316.52956875-118.69594311 0-96.19705031-99.92217281-200.14066219-204.88172625-248.77890657z" p-id="2005"></path></svg>