<svg t="1692162536196" class="icon" viewBox="0 0 1024 1024" version="1.1" xmlns="http://www.w3.org/2000/svg" p-id="3661" width="200" height="200"><path d="M585.386667 131.413333c-46.08 0-95.573333 20.48-121.173334 52.906667-27.306667-32.426667-75.093333-52.906667-121.173333-52.906667H75.093333v607.573334h240.64c92.16-1.706667 105.813333 11.946667 112.64 18.773333 5.12 5.12 8.533333 11.946667 10.24 18.773333h44.373334c1.706667-8.533333 6.826667-17.066667 13.653333-22.186666 11.946667-6.826667 29.013333-17.066667 133.12-15.36h218.453333V131.413333H585.386667z" opacity=".3" p-id="3662"></path><path d="M484.693333 803.84h-44.373333c-11.946667 0-22.186667-8.533333-25.6-18.773333 0-3.413333-1.706667-5.12-3.413333-6.826667-11.946667-10.24-58.026667-11.946667-93.866667-11.946667H75.093333c-13.653333 0-25.6-11.946667-25.6-25.6V131.413333c0-13.653333 11.946667-25.6 25.6-25.6H341.333333c44.373333 0 90.453333 15.36 121.173334 42.666667 32.426667-25.6 76.8-42.666667 121.173333-42.666667h264.533333c13.653333 0 25.6 11.946667 25.6 25.6v607.573334c0 13.653333-11.946667 25.6-25.6 25.6H631.466667c-93.866667-1.706667-110.933333 6.826667-117.76 10.24-1.706667 1.706667-3.413333 5.12-5.12 8.533333-1.706667 11.946667-11.946667 20.48-23.893334 20.48z m-27.306666-51.2h10.24c3.413333-6.826667 8.533333-11.946667 13.653333-17.066667l1.706667-1.706666c17.066667-11.946667 40.96-20.48 146.773333-20.48h192.853333V157.013333h-238.933333c-39.253333 0-80.213333 17.066667-102.4 44.373334-5.12 5.12-11.946667 10.24-20.48 10.24-6.826667 0-15.36-3.413333-20.48-8.533334-22.186667-25.6-63.146667-44.373333-102.4-44.373333h-238.933333v556.373333h215.04c92.16-1.706667 116.053333 11.946667 129.706666 25.6 6.826667 3.413333 10.24 6.826667 13.653334 11.946667z" opacity=".3" p-id="3663"></path><path d="M537.6 918.186667h-51.2c-11.946667 0-22.186667-8.533333-25.6-18.773334l-5.12-10.24c-11.946667-10.24-49.493333-15.36-114.346667-15.36H59.733333c-13.653333 0-25.6-11.946667-25.6-25.6V138.24c0-13.653333 11.946667-25.6 25.6-25.6h310.613334c52.906667 0 105.813333 18.773333 141.653333 51.2 35.84-32.426667 90.453333-51.2 141.653333-51.2h310.613334c13.653333 0 25.6 11.946667 25.6 25.6v709.973333c0 13.653333-11.946667 25.6-25.6 25.6h-256c-112.64-1.706667-131.413333 8.533333-139.946667 13.653334-3.413333 3.413333-5.12 6.826667-6.826667 11.946666-1.706667 10.24-11.946667 18.773333-23.893333 18.773334z m-34.133333-51.2h17.066666c5.12-8.533333 10.24-15.36 17.066667-20.48l1.706667-1.706667c18.773333-13.653333 46.08-23.893333 170.666666-22.186667H938.666667V163.84H653.653333c-47.786667 0-97.28 20.48-122.88 52.906667-5.12 5.12-11.946667 10.24-20.48 10.24-6.826667 0-15.36-3.413333-20.48-8.533334-25.6-30.72-75.093333-52.906667-122.88-52.906666H85.333333v658.773333h256c105.813333-1.706667 133.12 13.653333 148.48 29.013333 5.12 1.706667 10.24 6.826667 13.653334 13.653334z" p-id="3664"></path><path d="M404.48 361.813333H163.84c-13.653333 0-25.6-11.946667-25.6-25.6s11.946667-25.6 25.6-25.6h240.64c13.653333 0 25.6 11.946667 25.6 25.6s-11.946667 25.6-25.6 25.6zM404.48 503.466667H163.84c-13.653333 0-25.6-11.946667-25.6-25.6s11.946667-25.6 25.6-25.6h240.64c13.653333 0 25.6 11.946667 25.6 25.6s-11.946667 25.6-25.6 25.6zM404.48 643.413333H163.84c-13.653333 0-25.6-11.946667-25.6-25.6s11.946667-25.6 25.6-25.6h240.64c13.653333 0 25.6 11.946667 25.6 25.6s-11.946667 25.6-25.6 25.6zM848.213333 503.466667H607.573333c-13.653333 0-25.6-11.946667-25.6-25.6s11.946667-25.6 25.6-25.6h240.64c13.653333 0 25.6 11.946667 25.6 25.6s-11.946667 25.6-25.6 25.6zM848.213333 643.413333H607.573333c-13.653333 0-25.6-11.946667-25.6-25.6s11.946667-25.6 25.6-25.6h240.64c13.653333 0 25.6 11.946667 25.6 25.6s-11.946667 25.6-25.6 25.6zM512 909.653333c-13.653333 0-25.6-11.946667-25.6-25.6V191.146667c0-13.653333 11.946667-25.6 25.6-25.6s25.6 11.946667 25.6 25.6v692.906666c0 15.36-11.946667 25.6-25.6 25.6zM708.266667 387.413333c-5.12 0-8.533333-1.706667-11.946667-3.413333-8.533333-5.12-13.653333-13.653333-13.653333-22.186667V138.24c0-13.653333 11.946667-25.6 25.6-25.6h155.306666c13.653333 0 25.6 11.946667 25.6 25.6v223.573333c0 8.533333-5.12 17.066667-13.653333 22.186667-8.533333 5.12-17.066667 5.12-25.6 0L785.066667 344.746667l-64.853334 37.546666c-3.413333 3.413333-8.533333 5.12-11.946666 5.12zM733.866667 163.84v153.6l39.253333-22.186667c8.533333-5.12 17.066667-5.12 25.6 0l39.253333 22.186667v-153.6H733.866667z" p-id="3665"></path></svg>