<svg t="1689669914347" class="icon" viewBox="0 0 1024 1024" version="1.1" xmlns="http://www.w3.org/2000/svg" p-id="1586" width="200" height="200"><path d="M554.97386667 2.27555555h-85.94773334a36.40888889 36.40888889 0 0 0-35.70346666 29.26364445l-22.20942222 111.03573333a36.5568 36.5568 0 0 1-23.46097778 27.14737778Q372.47431111 175.21777778 357.93351111 182.04444445a37.01191111 37.01191111 0 0 1-15.67857778 3.49297777 36.26097778 36.26097778 0 0 1-20.15004444-6.08711111l-94.208-62.81671111a36.40888889 36.40888889 0 0 0-45.94346667 4.55111111l-60.76871111 60.76871111a36.40888889 36.40888889 0 0 0-4.55111111 45.94346667l62.81671111 94.21937778a36.57955555 36.57955555 0 0 1 2.59413334 35.81724444q-6.82666667 14.52942222-12.31075556 29.73013334a36.5568 36.5568 0 0 1-27.14737778 23.46097777l-111.04711111 22.20942223A36.40888889 36.40888889 0 0 0 2.27555555 469.02613333v85.93635556a36.40888889 36.40888889 0 0 0 29.26364445 35.70346666l111.03573333 22.20942223a36.5568 36.5568 0 0 1 27.14737778 23.46097777Q175.21777778 651.52568889 182.04444445 666.06648889a36.57955555 36.57955555 0 0 1-2.59413334 35.81724444l-62.81671111 94.21937778a36.40888889 36.40888889 0 0 0 4.55111111 45.94346667l60.76871111 60.76871111a36.40888889 36.40888889 0 0 0 45.94346667 4.55111111l94.21937778-62.81671111a36.26097778 36.26097778 0 0 1 20.15004444-6.08711111 37.00053333 37.00053333 0 0 1 15.6672 3.49297777q14.52942222 6.82666667 29.73013334 12.32213334a36.5568 36.5568 0 0 1 23.46097777 27.14737778l22.20942223 111.03573333A36.40888889 36.40888889 0 0 0 469.02613333 1021.72444445h85.93635556a36.40888889 36.40888889 0 0 0 35.70346666-29.26364445l22.20942223-111.03573333a36.5568 36.5568 0 0 1 23.46097777-27.14737778Q651.52568889 848.78222222 666.06648889 841.95555555a37.01191111 37.01191111 0 0 1 15.67857778-3.49297777 36.26097778 36.26097778 0 0 1 20.15004444 6.08711111l94.21937778 62.81671111a36.40888889 36.40888889 0 0 0 45.94346666-4.55111111l60.76871112-60.76871111a36.40888889 36.40888889 0 0 0 4.55111111-45.94346667l-62.81671111-94.21937778a36.57955555 36.57955555 0 0 1-2.60551112-35.81724444q6.82666667-14.52942222 12.31075556-29.71875556a36.5568 36.5568 0 0 1 27.14737778-23.46097778l111.03573333-22.20942222A36.40888889 36.40888889 0 0 0 1021.72444445 554.97386667v-85.94773334a36.40888889 36.40888889 0 0 0-29.26364445-35.70346666l-111.03573333-22.20942222a36.5568 36.5568 0 0 1-27.14737778-23.46097778Q848.78222222 372.47431111 841.95555555 357.93351111a36.57955555 36.57955555 0 0 1 2.59413334-35.81724444l62.81671111-94.21937778a36.40888889 36.40888889 0 0 0-4.55111111-45.94346667l-60.76871111-60.76871111a36.40888889 36.40888889 0 0 0-45.94346667-4.55111111l-94.21937778 62.81671111a36.26097778 36.26097778 0 0 1-20.15004444 6.08711111 37.00053333 37.00053333 0 0 1-15.6672-3.49297777q-14.52942222-6.82666667-29.73013334-12.32213334a36.5568 36.5568 0 0 1-23.46097777-27.14737778l-22.19804445-111.03573333A36.40888889 36.40888889 0 0 0 554.97386667 2.27555555zM512 730.45333333a218.45333333 218.45333333 0 1 1 154.46471111-63.98862222A217.01973333 217.01973333 0 0 1 512 730.45333333z" p-id="1587"></path></svg>