<svg t="1690195678112" class="icon" viewBox="0 0 1024 1024" version="1.1" xmlns="http://www.w3.org/2000/svg" p-id="1507" width="200" height="200"><path d="M437.6 56a304.8 304.8 0 0 1 129.408 23.376h3.528v1.2h2.4l1.176 2.4h2.4l1.176 2.4h2.4v1.032l3.528 2.4v2.4l2.4 1.176v2.4h1.104l1.176 4.416h1.176V104h1.176a31.368 31.368 0 0 1-4.8 23.376v2.4l-7.056 5.832-1.176 2.4h-2.4l-1.176 2.4h-2.4v0.936h-3.36V142.4H562.4v1.272h-10.584V144.8h-8.232v1.224h-7.056V147.2h-5.88v1.152h-4.8V149.6l-8.232 1.176v1.08h-3.456v1.176h-3.528a250.656 250.656 0 0 0-52.944 29.208l-2.4 3.504-3.528 1.176-6.96 8.28h-2.4l-5.88 7.008-2.4 1.176v2.4l-9.408 8.184v2.4l-4.8 3.504-1.176 3.504-2.4 1.176v2.4l-3.528 2.4V231.2l-2.4 1.176v2.4l-2.4 1.176V238.4l-2.4 1.176v2.4l-2.4 1.176-1.176 4.68a42.432 42.432 0 0 0-10.584 25.704h1.176v3.264l3.528 2.4v1.2l18.816 17.52 34.128 35.064a188.136 188.136 0 0 1 27.048 28.056l2.4 1.176v3.384h1.176v2.4h1.176v7.008h1.176v7.008h-0.84v5.832a54.672 54.672 0 0 1-14.112 19.872l-70.584 68.952-5.88 7.008a43.2 43.2 0 0 1-28.224 7.008 75.672 75.672 0 0 1-31.776-23.376l-8.256-6.96-28.224-29.208-17.64-17.52a42.744 42.744 0 0 1-8.232-8.184 2.064 2.064 0 0 0-1.176 1.176l-14.112 15.192-30.624 29.184a64.224 64.224 0 0 1-24.696 19.872h-8.232a39.72 39.72 0 0 1-32.952-18.696l-56.472-54.912v-2.4l-2.4-1.176-4.8-5.832-30.432-29.16v-2.4h-1.176l-2.4-7.008H57.68v-5.784h-1.176a32.448 32.448 0 0 1 4.8-21.024v-2.4l3.528-2.4a178.296 178.296 0 0 1 22.368-23.256l9.312-10.416L142.4 239.504 181.232 199.76l21.168-19.848 3.528-4.68H207.2V172.88l10.584-9.36 11.76-12.864h2.4l2.4-4.68 5.88-4.68 2.4-3.504h2.4l9.408-10.512h2.4l3.168-4.632h2.4l1.176-2.4H264.8l1.176-2.4h2.4l2.4-3.504h2.4l1.176-2.4h2.4l2.4-3.504h2.4l1.176-2.4 3.528-1.176V104l4.8-1.176 1.176-2.4 4.8-1.176 1.176-2.4 4.8-1.176 1.176-2.4h2.4v-1.008h2.4v-1.176h2.4v-1.176h2.4v-1.152h2.4v-1.176h2.4v-1.176l7.056-2.4v-1.104l5.88-1.176v-1.152h2.4v-1.176h3.528v-1.152h2.4v-1.176h3.528v-1.176h2.4v-1.152l21.168-5.832v-1.2h4.8c5.88-1.992 13.872-3.936 19.992-5.832h5.88V60.8h7.056v-1.248h7.056V58.4h10.584v-1.2A54.768 54.768 0 0 0 437.6 56z m325.992 29.256a190.944 190.944 0 0 1 71.76 11.688l7.056 1.176V99.2h2.4v1.248h3.528V101.6h2.4v1.176h2.4V104h2.4l9.264 6.96v2.4l2.4 1.176v2.4l2.4 1.176 1.176 7.008h1.176a43.824 43.824 0 0 1-7.152 30.24l-91.8 89.976v1.176h1.176l30.624 31.536a2.064 2.064 0 0 0 1.176-1.176 36.288 36.288 0 0 0 7.056-7.008l14.112-14.016 49.416-48 22.344-23.376 4.8-1.176V182.24l4.8-1.176v-1.152h4.8v-1.176a40.8 40.8 0 0 1 24.696 4.68l1.176 2.4h2.4l2.4 3.504h1.176v2.4l3.528 2.4v2.4h1.176v2.4h1.176v3.192h1.176l1.176 4.68h1.176v3.48a188.376 188.376 0 0 1 3.528 132l-1.176 7.008-14.112 30.384-2.4 1.176-1.176 4.68-2.4 1.176v2.4h-1.464l-1.176 3.504-2.4 1.176v2.4l-2.4 1.176-1.176 3.504-4.8 3.504v2.4l-8.232 7.008V416l-7.056 5.832-1.176 2.4h-2.4l-7.056 8.184h-2.4l-3.528 4.68-3.528 1.176-1.176 2.4h-2.4l-1.176 2.4-3.528 1.176v1.176h-2.4l-1.176 2.4-7.056 2.4-1.176 2.4-7.056 2.4v1.176h-2.4v0.6l-7.056 2.4v1.176h-3.144v1.224h-2.4v1.176h-3.48v1.176h-2.4v1.176l-7.056 1.176v1.056h-4.8a159.048 159.048 0 0 1-54.12 8.184h-21.024v-1.176h-9.432v-1.176h-7.056v-1.152h-5.88a112.992 112.992 0 0 0-21.168-5.832l-177.6 177.6-41.232 39.72-4.8 5.832a49.584 49.584 0 0 0-16.464 18.696h1.176l1.176 8.184h1.176v4.68h1.176v5.832h1.176v5.856a166.56 166.56 0 0 1-3.528 84.144v4.68h-1.08v3.504h-1.176v4.68h-1.176v2.4h-1.176l-1.176 7.008h-1.176v2.4h-1.176v3.504h-1.176l-2.4 7.008h-1.152v2.4h-1.176v2.4h-1.176v2.4h-1.176v2.4h-1.176v2.4h-1.176v2.4l-2.4 1.176-1.176 4.68-2.4 1.176v2.4l-2.4 1.176v2.4l-3.528 2.4v2.4l-2.4 1.176v2.4l-5.88 4.68v2.4l-10.584 9.36-11.76 12.864h-2.4l-3.528 4.68h-2.4l-2.4 3.504h-2.4l-2.4 3.504h-2.4l-1.176 2.4h-2.4l-1.176 2.4-4.8 1.176-1.176 2.4H380v1.176h-2.4v1.176h-4.8v1.176h-2.4v1.176H368v1.176l-7.056 2.4v1.032h-3.24v1.176h-2.4v1.224l-7.056 1.176v1.224h-3.504v1.176h-3.528v1.176h-3.528v1.176h-4.8a172.152 172.152 0 0 1-88.224 2.4l-15.288-2.4v-1.272H225.92v-1.152l-8.232-1.104v-1.248h-2.4V948.8l-7.056-1.176V946.4l-4.8-1.176V944H200v-1.056h-2.4v-1.152h-2.4l-2.4-3.504h-2.16v-1.176l-3.528-2.4v-2.4l-2.4-1.176v-2.4h-1.128l-1.176-4.68h-1.176a41.136 41.136 0 0 1 4.8-31.56l23.52-22.2 47.064-48 15.288-15.192a36.432 36.432 0 0 0 7.056-7.008l-23.52-22.2a25.248 25.248 0 0 0-10.584-9.36l-91.872 92.616-4.8 1.176a34.344 34.344 0 0 1-43.536-11.688v-2.4h-1.08v-2.4h-1.176v-3.384h-1.176v-2.4h-1.176l-1.176-5.832h-1.176v-3.456h-1.176v-3.504h-1.176v-3.504H94.16v-4.56h-1.176v-4.8h-1.176v-4.656h-1.176l-1.176-11.688h-1.176v-8.184H87.2V773.6h-1.272a42.984 42.984 0 0 1 1.272-16.44v-14.016h1.08v-8.184h1.176V728h1.176v-5.904h1.176v-4.68h1.176v-4.656h1.176v-3.504h1.176v-3.528h1.176l2.4-10.512h1.128v-2.4h1.176v-3.432h1.176l2.4-7.008h1.128V680h1.176v-3.48l2.4-1.176v-2.4h1.128v-2.4h1.176v-2.4h1.176v-2.4l2.4-1.176 1.176-4.68 2.4-1.176v-2.4l2.4-1.176v-2.4l3.528-2.4v-2.4l2.4-1.176 1.176-3.504 5.712-4.056v-2.4l5.832-4.68 11.76-12.84h2.4l4.8-5.856h2.4l2.4-3.504h2.4l2.4-3.504h2.4l1.176-2.4 3.528-1.176v-1.104l4.8-1.176 1.176-2.4 7.056-2.4 1.176-2.4h2.4v-0.96l4.8-1.176v-1.176H200V588.8l4.8-1.176v-1.08h3.48v-1.152h2.4v-1.176h3.48v-1.176h2.4v-1.176l8.232-1.176v-1.152h3.48v-1.176h4.8v-1.152h4.8v-1.176h4.8v-1.176h6.792a116.376 116.376 0 0 1 47.064-2.4h12.936l32.952 7.008 180-180 38.832-37.392 5.88-7.008a41.496 41.496 0 0 0 16.464-19.872h-1.176l-2.4-14.016h-1.128v-5.736a142.776 142.776 0 0 1-1.176-61.92v-7.008h1.176l1.176-11.688h1.176v-4.68h1.176l1.176-8.184h1.176v-3.504h1.176v-3.504h1.176v-3.504h1.176l1.176-5.832h1.176l1.176-4.68h1.176v-3.504h1.176l2.4-7.008h1.176l1.176-4.68 2.4-1.176 1.176-4.68 2.4-1.176 1.176-4.68h1.176l1.176-3.504 2.4-1.176v-2.4l3.528-2.4v-2.4l3.528-2.4v-2.4l5.88-4.68v-2.4l6.864-5.472 10.584-11.688h2.4l4.8-5.832h2.4l2.4-3.504h2.4l2.4-3.504h2.4l1.176-2.4h2.4l1.176-2.4 3.528-1.176v-1.008l7.056-2.4 1.176-2.4 4.8-1.176V106.4l6.552-2.4v-1.224h3.528V101.6l4.8-1.176V99.2l7.056-1.176v-1.08h2.4v-1.176l7.056-1.176V93.44h4.8v-1.176h4.8v-1.176h4.8v-1.176h5.88v-1.152h5.88v-1.176a132.168 132.168 0 0 0 24.312-2.328z m-187.056 563.232v-2.4h1.176l5.88-7.008h2.4l2.4-3.504h1.176v-2.4l8.232-5.832 8.232-9.36 17.64-16.368a46.68 46.68 0 0 1 15.288-14.016 22.2 22.2 0 0 1 10.584-10.512l4.8-5.856h2.4l1.176-2.4 4.8-1.176v-0.96h2.4v-1.176h5.52v-1.176a25.128 25.128 0 0 1 15.288 2.4h3.528v1.176h2.4v1.176h2.4l21.096 19.704 202.248 203.4 25.992 24.6 5.88 7.008a86.232 86.232 0 0 1 15.288 15.192 39.984 39.984 0 0 1-3.528 37.392l-63.528 61.944a89.928 89.928 0 0 1-36.48 29.208 41.832 41.832 0 0 1-19.992-2.4 71.856 71.856 0 0 1-17.64-15.192l-4.8-3.504-21.192-22.2-162.36-160.08-47.064-48-17.64-16.368v-2.4l-5.736-4.512v-2.4h-1.224L562.4 684.8h-1.176v-5.928H560a45.336 45.336 0 0 1 3.528-18.696h1.272v-2.4l5.88-4.68a10.176 10.176 0 0 1 5.856-4.608z" p-id="1508"></path></svg>