<svg t="1691729197058" class="icon" viewBox="0 0 1024 1024" version="1.1" xmlns="http://www.w3.org/2000/svg" p-id="2069" width="200" height="200"><path d="M202.88853333 295.7312H-3.54986667v-98.304h527.5648v98.304h-207.53066666v530.8416H202.88853333V295.7312zM664.91733333 664.91733333s68.8128 66.62826667 157.2864 66.62826667c48.05973333 0 91.7504-25.12213333 91.7504-76.45866667 0-112.50346667-297.09653333-92.84266667-297.09653333-286.17386666 0-104.8576 90.65813333-182.40853333 210.80746667-182.40853334 124.5184 0 187.86986667 67.72053333 187.86986666 67.72053334l-49.152 92.84266666s-60.07466667-54.61333333-138.71786666-54.61333333c-53.52106667 0-95.0272 30.58346667-95.0272 75.3664 0 111.4112 296.00426667 84.10453333 296.00426666 285.0816 0 100.48853333-76.45866667 184.59306667-207.53066666 184.59306667-139.81013333 0-217.36106667-86.28906667-217.36106667-86.28906667L664.91733333 664.91733333z" p-id="2070"></path></svg>