<svg t="1689670152457" class="icon" viewBox="0 0 1024 1024" version="1.1" xmlns="http://www.w3.org/2000/svg" p-id="2143" width="200" height="200"><path d="M512 308.88533333m-266.66666667 0a266.66666667 266.66666667 0 1 0 533.33333334 0 266.66666667 266.66666667 0 1 0-533.33333334 0Z" p-id="2144"></path><path d="M922.66666667 676.26666667H801.888c-18.848 0-34.13333333-15.28533333-34.13333333-34.13333334s15.28533333-34.13333333 34.13333333-34.13333333H922.66666667c18.848 0 34.13333333 15.28533333 34.13333333 34.13333333s-15.28533333 34.13333333-34.13333333 34.13333334zM922.66666667 825.06666667H713.6c-18.848 0-34.13333333-15.28533333-34.13333333-34.13333334s15.28533333-34.13333333 34.13333333-34.13333333h209.06666667c18.848 0 34.13333333 15.28533333 34.13333333 34.13333333s-15.28533333 34.13333333-34.13333333 34.13333334zM922.66666667 973.86666667H713.6c-18.848 0-34.13333333-15.28533333-34.13333333-34.13333334s15.28533333-34.13333333 34.13333333-34.13333333h209.06666667c18.848 0 34.13333333 15.28533333 34.13333333 34.13333333s-15.28533333 34.13333333-34.13333333 34.13333334zM550.4 842.66666667c0-111.98933333 69.04533333-207.85066667 166.88-247.34933334 16.59733333-6.69866667 18.21866667-29.58933333 2.624-38.368C658.19733333 522.176 587.34933333 502.4 512 502.4c-239.17866667 0-433.06666667 199.21066667-433.06666667 444.96 0 1.856 0.01066667 3.70133333 0.032 5.54666667 0.13866667 11.63733333 9.696 20.96 21.33333334 20.96h450.496c15.24266667 0 25.48266667-15.488 19.66933333-29.57866667C557.536 912.97066667 550.4 878.656 550.4 842.66666667z" p-id="2145"></path></svg>